<?xml version="1.0" encoding="UTF-8"?>
<svg width="1200pt" height="1200pt" version="1.1" viewBox="0 0 1200 1200" xmlns="http://www.w3.org/2000/svg">
 <g>
  <path d="m1078 147.37c3.8438 4.0781 4.6875 9.8906 2.5312 14.672l-12.047-5.3906-4.0781-12.844c4.6875-1.4531 9.9844-0.23438 13.594 3.5625z"/>
  <path d="m1068.5 156.66 12.047 5.3906c-0.70312 1.5469-1.6875 3-3 4.2188-1.5 1.4062-3.2344 2.4375-5.0625 3z"/>
  <path d="m1068.5 156.66 4.0312 12.656c-4.7344 1.5469-10.172 0.375-13.875-3.4688-3.8438-4.0781-4.6406-9.8906-2.4844-14.672z"/>
  <path d="m1064.4 143.81 4.0781 12.844-12.328-5.5781c0.70312-1.5469 1.6875-3 3-4.2188 1.5-1.4531 3.3281-2.4844 5.25-3.0469z"/>
  <path d="m947.68 369.94c5.0625 5.3438 4.875 13.828-0.46875 18.891s-13.828 4.875-18.891-0.46875-4.875-13.828 0.46875-18.891 13.828-4.8281 18.891 0.46875z"/>
  <path d="m751.03 305.58c-2.1094-5.2031-3.7031-10.5-4.5938-15.75 0.65625 0.46875 1.2656 1.0312 1.8281 1.5938 3.75 3.8906 4.6406 9.4219 2.7656 14.156z"/>
  <path d="m746.02 311.72c0.23438-8.9062-0.75-15.844-1.9219-23.297 0.84375 0.375 1.6406 0.84375 2.3906 1.3594 0.84375 5.25 2.4375 10.547 4.5938 15.75-0.70312 1.7344-1.7812 3.375-3.1875 4.7344-0.65625 0.60938-1.2188 1.0781-1.875 1.4531z"/>
  <path d="m744.1 288.42c1.1719 7.4531 2.1562 14.391 1.9219 23.297-5.2969 3.5625-12.562 2.8594-17.062-1.9219-5.1094-5.3438-4.875-13.828 0.46875-18.891 4.0312-3.7969 9.8438-4.6406 14.672-2.4844z"/>
  <path d="m728.63 442.45c5.0625 5.3438 4.875 13.828-0.46875 18.891-1.5469 1.4531-3.3281 2.4844-5.25 3.0938-3.4219-8.2031-6.5625-16.547-9.5156-24.938 5.0156-2.2969 11.203-1.2656 15.234 2.9531z"/>
  <path d="m713.34 439.55c2.9531 8.3906 6.0938 16.688 9.5156 24.938-4.6875 1.4531-10.031 0.23438-13.641-3.5625-5.0625-5.3438-4.875-13.828 0.46875-18.891 1.125-1.0781 2.3906-1.9219 3.6562-2.4844z"/>
  <path d="m642.84 352.22c5.0625 5.3438 4.875 13.828-0.46875 18.891s-13.828 4.875-18.891-0.46875-4.875-13.828 0.46875-18.891c5.3438-5.1094 13.828-4.9219 18.891 0.46875z"/>
  <path d="m1158.3 182.34-37.734-16.969c6.5625-31.922-22.359-64.359-54.891-61.734l-10.875-34.312c-1.3125-4.1719-4.6406-7.4531-8.8594-8.7188-10.125-3.1406-16.969 7.125-24.516 12.141-14.578 11.719-29.672 23.766-44.859 35.109-47.766 39.375-184.22 101.67-232.45 140.95-31.547 3.8906-58.172 26.062-83.906 42.328-14.953 10.359-29.438 19.688-45.281 28.688-34.031 19.125-71.016 42.797-85.688 80.953-8.4375 17.391-15.094 31.078-26.906 44.109-4.6406 5.0625-9.375 9.6094-12.938 16.781-11.812 21.938 5.1562 54 31.078 52.781 36.984-2.2969 66.281-45.469 78.422-78.516 32.109-8.7188 58.219-30.703 84.516-49.266-8.25 21.891-13.312 39.703-9.5625 63 4.4062 32.062 5.8594 80.109 22.969 108.61 4.0312 4.7812 8.625 7.4062 12.656 9.75 21.844 12.75 42.188 28.078 60.516 45.609 6.5156 6.2344 14.812 9.75 22.5 9.75 31.078-1.5 45.328-38.953 33.188-66.938 12.938 3.5625 25.688-2.7656 33.188-13.875 15.797-21.891 2.8125-57.141-19.312-72.094 10.031 1.5469 19.594 5.2969 30.188 1.6406-2.625 37.219 1.9219 67.359 26.297 90.422 18.047 16.875 50.578 17.859 64.125-3.375 6.75-10.688 5.8125-22.969 5.2031-31.125-1.1719-15.375-2.3438-30.797-3.5156-46.172-0.70312-8.2969-1.0312-13.078 1.875-16.969 16.875-30.609 36.422-57.656 41.672-94.781 17.766-9.0938 31.359-33.141 41.438-46.734 17.297-25.406 36.844-48.984 58.641-70.594 17.109-17.109 35.766-33.047 55.312-47.391 8.1562-5.625 6.75-19.219-2.4375-22.969zm-123.1-86.391 4.9688 15.656c-5.0156 3.1406-9.4688 7.0781-13.125 11.719l-16.875-7.5938c8.4375-6.5625 16.781-13.219 25.031-19.781zm-49.359 38.203 30.188 13.547c-0.70312 4.0312-0.89062 8.1094-0.65625 12.141-10.641-7.7812-22.547-14.812-35.859-21.141 2.1094-1.4531 4.2188-3 6.3281-4.5469zm-211.4 226.74c-6.75 17.438-20.625 36.188-31.969 49.922-10.406-4.3594-23.109-6-37.453-4.7344 3.2344-9.5156 8.3438-24.234 11.625-33.562 15.094-6.7031 29.906-14.859 43.5-24.422 0.46875-0.046875 0.9375-0.09375 1.3594-0.1875 4.0312 4.8281 8.3438 9.1406 12.891 12.984zm-235.26 117.28c-13.219 12.656-30.328 13.641-25.781-4.6406 1.5938-3.2812 5.7656-7.3125 8.7656-10.688 16.828-18.375 25.125-38.297 35.859-59.953 12.422 5.8125 15.891 13.688 16.875 20.672-6.7031 20.859-19.312 40.172-35.719 54.609h-0.046875zm122.39-109.08c-19.594 14.812-39.562 30.656-63.328 38.859-4.9219-12.75-14.25-21.234-24.469-26.953 19.406-19.594 48.891-34.031 73.5-49.266 8.6719 12.75 13.594 25.172 14.766 37.031-0.14062 0.09375-0.28125 0.1875-0.42188 0.32812zm33.609-16.547-0.09375 0.046875c-2.625 1.0312-5.4375 2.0156-8.1562 3.0938-2.8125-12.797-8.625-25.734-17.297-38.625 19.922-12.656 56.016-40.781 76.547-40.969 17.062 5.3438 26.578 26.391 13.688 38.766-19.266 15.891-41.391 28.688-64.688 37.688zm5.2969 94.312c-0.46875-4.4062-0.89062-8.8594-1.0312-13.219 11.062-1.9688 25.312-1.7812 33.281 2.0625 3.75 21.656 6.375 40.406 9.0938 64.453-11.438 2.2969-22.031 7.5-31.641 15.609-4.875-22.594-7.3125-46.031-9.7031-68.906zm97.172 146.86c-1.7344 1.6875-3.7031 2.7656-5.1094 2.9062-0.60938-0.046875-2.3906-0.84375-4.0312-2.3906-20.578-19.734-43.594-36.797-68.25-51 10.312-11.766 21.516-17.438 34.641-17.672 25.547 8.9531 62.766 43.359 42.75 68.156zm39.047-66.141c-1.0312 1.5469-2.2969 2.6719-3.5625 3.1406-20.953-10.781-41.906-23.812-64.547-31.641-2.5312-23.203-5.0625-41.531-8.4375-61.828 2.1562 5.9531 4.3125 12.281 6.7031 19.312 2.1562 7.6875 5.3438 16.594 14.812 16.594 24.891 2.7188 67.969 28.125 55.031 54.422zm25.5-83.344c-0.28125 1.0781-0.75 2.0156-1.3125 2.5312-23.625-3.6094-47.859-8.0625-71.812-7.7812-3.8906-11.25-7.4531-21-11.109-30.562 0.1875-0.28125 0.375-0.51562 0.5625-0.79688 4.0312 5.7188 10.266 10.969 17.719 8.3906 7.875-2.3906 17.625-1.5 25.172-0.42188 13.406 0.9375 43.453 10.359 40.688 28.594zm16.641-54.656c-0.09375 8.1094-0.32812 15.656-1.1719 23.531-20.578-22.359-53.203-26.625-80.25-24.656-1.4062-1.6875-2.7656-3.2344-4.125-4.8281 1.4062-2.8594 2.7188-5.7188 4.0312-8.5781 25.359 10.781 55.172 7.4531 81.984-1.3594-0.32812 5.3438-0.42188 10.688-0.51562 15.844zm58.734 155.16c-5.7656 6.7969-17.438 3.375-24.047-2.4844-22.641-21.797-19.172-59.953-13.875-93.562 21.891-0.9375 32.062 5.3906 37.078 10.781-2.9531 8.7656-2.1562 16.688-1.5938 24.281 1.1719 15.375 2.3438 30.797 3.5156 46.219 0.375 4.875 0.89062 11.625-1.125 14.766zm41.484-179.68c-2.1562 25.078-17.344 48-29.203 70.406-11.625-9.0938-27.094-13.641-46.266-13.547 5.1094-25.828-4.5938-59.953 14.484-80.625 14.344-14.625 42.703-5.8125 54.281 5.5781 6.1406 4.125 7.5938 10.594 6.6562 18.188zm45.656-56.719c-6.1875 9.0938-14.812 21.797-23.672 31.312-27.422-41.812-97.406-46.594-115.73 4.3594-34.359 12.188-76.312 21.562-103.36-13.406 17.391-20.297 12.797-54.422-10.031-70.453 12.281-7.9688 170.21-96.422 181.26-103.78 61.219 24.375 92.672 61.453 98.484 116.02-9.4219 11.531-18.469 23.578-26.906 35.953zm49.5-61.781c-3.2812-13.547-8.1562-26.109-14.625-37.734 3.8438 0.65625 7.7812 0.9375 11.672 0.65625l9.5625 30.141c-2.25 2.2969-4.4531 4.5938-6.6094 6.9375zm18.094-79.125c-15 31.219-61.406 10.312-47.953-21.609 15-31.266 61.5-10.453 47.953 21.609zm9.9375 51.422-5.5312-17.438c4.875-3.0469 9.375-7.0781 12.938-11.625l17.344 7.7812c-8.4844 6.8438-16.734 13.969-24.75 21.281z"/>
  <path d="m468.1 759.56-29.906-55.734c-4.5469-8.4844-11.438-21.328-25.266-26.578-10.5-3.8438-22.781-2.5312-33.094-3.4219 18.844-13.172 38.484-25.875 58.359-37.734 28.406-17.531 56.484-33.891 62.625-73.359 3.1875-23.25-16.969-61.734-44.203-49.734-31.078 16.547-62.578 33.984-93.562 51.75-40.312 21.328-78.516 51.938-110.39 84.375-24.281 24.703-94.781 88.875-116.16 114.61-55.219 70.734-70.5 155.29-101.86 235.31-3.1406 8.4375 3.6094 17.953 12.609 17.812 5.5312 0 10.688-3.4688 12.609-8.9531 11.531-32.812 23.016-65.625 34.5-98.484 19.922-60.328 44.531-118.97 93.609-160.74 36.375-33.609 100.59-101.11 139.45-130.08 43.453-30.328 92.578-55.031 138.79-80.531 26.953 31.453-18.75 62.484-45.141 77.016-31.781 20.672-65.578 38.203-91.547 66.469-16.359 20.625-23.625 42.844-32.812 65.531-16.219 41.625-23.672 65.719-0.23438 107.44l-17.531-1.9219c-17.391-1.6406-20.438 24.328-2.9531 26.578 29.859 2.2969 58.031 12.328 83.859-7.5938 16.5-11.016 32.156-26.156 46.125-39.938 21.891-19.734 53.156-58.5 83.906-41.297-39.281 72.094-87.328 141.42-149.11 194.81-54.938 43.922-123.1 73.828-164.44 133.4-10.312 13.969 10.875 30 21.469 15.938 43.031-61.453 115.36-88.359 170.02-137.44 43.312 15.984 61.547 0 61.828-44.109 37.828 3.6562 43.359-23.438 39.562-54.234 43.828-1.6406 39.844-37.453 29.156-68.766 7.3125-16.453 29.766-37.734 14.25-55.125-10.594-11.438-27.516-17.203-44.531-15.281zm-123.05 89.812c-4.9219 3.2344-10.594 6.75-16.406 7.5469-6.6562-11.016-13.969-23.953-17.906-36.375 7.2188 0.5625 14.672 1.5 21.844 2.2031 5.1562 7.4062 10.688 15.984 16.031 24.188-1.2188 0.84375-2.3906 1.6875-3.5625 2.4375zm42.234-36.797c-6.0938 5.9531-12 11.719-17.953 17.203-21.75-34.312-19.312-33.234-60-36.141 2.4844-10.078 6.1875-19.922 9.75-29.953 11.109-1.5938 21.141-1.875 32.625-3.4688 3.0469-0.375 8.7188-1.1719 10.875 0.046875 2.9531 1.7344 30.844 39.891 33.844 43.406-3.0938 3-6.1406 6-9.1406 8.9062zm34.031-31.031c-1.6406 1.3125-3.3281 2.7188-5.0625 4.125-9.2344-10.453-28.312-41.438-40.641-48.656-17.531-8.4375-29.719-1.5-45.562-1.3594 5.2969-12.281 10.734-25.359 19.547-36.328 5.9062 0.5625 49.172 1.3125 53.766 2.9531 4.1719 1.5938 7.8281 7.875 11.25 14.25l27.516 51.328c-6.6562 3.4688-13.5 7.9688-20.859 13.781zm-20.391 189.32c-0.75 3.375-1.3594 4.7344-1.7344 5.25-1.7344 0.375-6.7031-0.14062-9.0938-0.5625 4.125-4.2188 8.1562-8.5312 12.188-12.938-0.32812 2.7656-0.79688 5.4844-1.4062 8.25zm42.141-50.578c-0.28125 3.375-0.75 4.875-1.0312 5.3906-1.5938 0.5625-6.5156 0.75-8.9062 0.65625 3.4219-4.3125 6.8438-8.7188 10.219-13.219 0 2.3906-0.09375 4.7812-0.28125 7.1719zm35.344-50.391c-0.375 0.32812-4.125 1.3125-5.6719 1.4531 1.9219-2.9062 3.8438-5.8125 5.7188-8.7656 0.375 2.25 0.1875 7.3594-0.046875 7.3125z"/>
 </g>
</svg>
